<svg xmlns="http://www.w3.org/2000/svg" version="1.0" width="256.000000pt" height="256.000000pt" viewBox="0 0 256.000000 256.000000" preserveAspectRatio="xMidYMid meet">

    <g transform="translate(0.000000,256.000000) scale(0.100000,-0.100000)" fill="#000" stroke="none">
        <path d="M486 2340 c-41 -13 -94 -68 -106 -110 -5 -19 -10 -98 -10 -175 0 -154 9 -185 55 -185 49 0 55 19 55 184 0 135 2 155 18 169 17 15 65 17 480 17 l461 0 3 -269 c3 -254 4 -271 24 -297 11 -15 33 -37 48 -48 26 -20 43 -21 297 -24 l269 -3 0 -623 c0 -591 -1 -624 -18 -639 -17 -16 -86 -17 -784 -17 -728 0 -766 1 -781 18 -16 17 -17 80 -17 704 0 651 -1 686 -18 701 -26 23 -58 21 -76 -5 -14 -20 -16 -103 -16 -698 0 -412 4 -688 10 -709 13 -46 65 -99 110 -111 47 -13 1533 -13 1580 0 45 12 97 65 110 111 14 49 13 1272 -1 1324 -9 34 -61 91 -327 357 -266 266 -323 318 -357 327 -49 13 -965 14 -1009 1z m1303 -628 c-148 -2 -216 1 -225 9 -11 9 -14 56 -14 228 l0 216 225 -225 225 -225 -211 -3z"/>
        <path d="M1086 1425 c-23 -23 -20 -61 6 -79 19 -13 58 -16 225 -16 197 0 202 -1 217 -22 13 -18 16 -55 16 -195 0 -95 -4 -173 -8 -173 -4 0 -23 16 -42 35 -51 53 -110 45 -110 -15 0 -36 174 -210 210 -210 36 0 210 175 210 211 0 59 -59 67 -110 14 -19 -19 -38 -35 -42 -35 -4 0 -8 87 -8 194 0 184 -1 195 -22 226 -51 74 -55 75 -302 78 -196 3 -226 1 -240 -13z"/>
        <path d="M844 1188 c-104 -101 -117 -133 -70 -163 29 -19 46 -13 90 34 17 17 33 31 37 31 4 0 9 -91 11 -202 3 -191 4 -205 25 -234 42 -59 67 -64 310 -64 157 0 222 3 231 12 16 16 15 63 -1 76 -8 7 -94 12 -224 14 -157 2 -215 6 -225 16 -15 15 -25 382 -10 382 4 0 21 -14 38 -31 44 -47 61 -53 90 -34 47 30 34 62 -70 163 -62 61 -101 92 -116 92 -15 0 -54 -31 -116 -92z"/>
    </g>
</svg>
